<svg width="725" height="730" viewBox="0 0 725 730" fill="none" xmlns="http://www.w3.org/2000/svg">
<g clipPath="url(#clip0_589_20386)">
<path d="M613.884 156.527L565.556 154.665L404.875 143.013C399.087 142.593 393.879 146.514 392.683 152.193L298.731 598.163C297.249 605.196 302.455 611.871 309.638 612.148L527.964 620.559C533.689 620.78 538.718 616.788 539.803 611.163L624.83 170.318C626.176 163.338 620.987 156.8 613.884 156.527Z" fill="#201E1E" fillOpacity="0.9" stroke="#201E1E" strokeOpacity="0.9" strokeWidth="0.966866"/>
<path d="M604.458 154.712L533.067 151.961C527.337 151.741 522.306 155.738 521.225 161.37L458.111 490.444C457.158 495.414 453.093 499.193 448.066 499.782L315.915 515.26C310.812 515.857 306.711 519.739 305.833 524.801L293.408 596.434C292.209 603.351 297.379 609.74 304.394 610.01L524.527 618.491C530.31 618.714 535.372 614.642 536.394 608.946L615.431 168.354C616.675 161.418 611.499 154.983 604.458 154.712Z" fill="white" stroke="#201E1E" strokeOpacity="0.9" strokeWidth="1.93373"/>
<path d="M600.876 204.889L504.744 201.185L504.726 201.668L497.683 221.233L596.23 225.029L600.876 204.889Z" fill="#D2D2D2"/>
<path d="M569.54 365.268L591.77 240.339L494.189 236.579L460.848 361.081L569.54 365.268Z" fill="#D2D2D2"/>
<path d="M566.121 378.682L551.586 454.562L440.479 450.281L460.271 376.056L566.121 378.682Z" fill="#D2D2D2"/>
<path d="M534.32 538.56L548.13 468.942L318.669 460.102L282.155 528.845L311.623 529.98L534.32 538.56Z" fill="#D2D2D2"/>
<path d="M531.904 551.045L521.57 605.8L434.617 602.45C434.617 602.45 451.248 572.611 421.91 568.095C381.704 561.905 388.725 600.682 388.725 600.682L304.67 597.443L313.926 545.55L531.904 551.045Z" fill="#D2D2D2"/>
<path d="M542.293 180.861C554.76 176.224 562.695 153.587 562.695 153.587L523.083 152.061L518.084 181.38C518.084 181.38 533.446 184.152 542.293 180.861Z" fill="#201E1E" fillOpacity="0.9"/>
<path d="M116.44 77.3V125.3C116.44 136.1 113.56 144.22 107.8 149.66C102.04 155.02 93.64 157.7 82.6 157.7C71.56 157.7 63.16 155.02 57.4 149.66C51.64 144.22 48.76 136.1 48.76 125.3V77.3H65.32V124.58C65.32 131.22 66.72 136.14 69.52 139.34C72.4 142.54 76.76 144.14 82.6 144.14C88.44 144.14 92.76 142.54 95.56 139.34C98.36 136.14 99.76 131.22 99.76 124.58V77.3H116.44ZM152.075 77.3V156.5H135.515V77.3H152.075Z" fill="#E9E9E9"/>
<path d="M635.44 621.3V669.3C635.44 680.1 632.56 688.22 626.8 693.66C621.04 699.02 612.64 701.7 601.6 701.7C590.56 701.7 582.16 699.02 576.4 693.66C570.64 688.22 567.76 680.1 567.76 669.3V621.3H584.32V668.58C584.32 675.22 585.72 680.14 588.52 683.34C591.4 686.54 595.76 688.14 601.6 688.14C607.44 688.14 611.76 686.54 614.56 683.34C617.36 680.14 618.76 675.22 618.76 668.58V621.3H635.44ZM719.075 700.5H699.395L682.115 672.42L665.075 700.5H646.115L673.355 660.54L648.035 621.3H667.475L683.435 647.94L699.635 621.3H717.635L692.195 659.94L719.075 700.5Z" fill="#E9E9E9"/>
<path d="M591.301 142.312L491.18 136.594C487.199 136.367 483.659 139.105 482.879 143.015L392.738 594.61C391.786 599.379 395.272 603.886 400.127 604.163L497.354 609.716C501.315 609.942 504.844 607.23 505.645 603.344L598.68 151.914C599.665 147.132 596.175 142.591 591.301 142.312Z" fill="white" stroke="#201E1E" strokeOpacity="0.9" strokeWidth="2"/>
<path d="M335.183 159.237L572.796 172.807M579.556 159.671L559.09 158.502M545.611 157.732L384.374 148.524" stroke="#201E1E" strokeOpacity="0.9" strokeWidth="2.4" strokeLinecap="round"/>
<path d="M571.189 109.077L312.351 92.3773C308.397 92.1222 304.852 94.8 304.016 98.6732L199.335 583.769C198.317 588.488 201.679 593.028 206.491 593.429L466.383 615.086C470.4 615.421 474.04 612.714 474.874 608.769L578.501 118.716C579.509 113.946 576.054 109.391 571.189 109.077Z" fill="white" stroke="#201E1E" strokeOpacity="0.9" strokeWidth="2"/>
<path d="M314.078 125.478L551.691 139.048M558.451 125.912L537.984 124.743M524.506 123.974L363.269 114.765" stroke="#201E1E" strokeOpacity="0.9" strokeWidth="2.4" strokeLinecap="round"/>
<circle cx="327.332" cy="112.713" r="4" transform="rotate(3.26863 327.332 112.713)" fill="#D2D2D2"/>
<circle cx="341.301" cy="113.511" r="4" transform="rotate(3.26863 341.301 113.511)" fill="#D2D2D2"/>
<circle cx="355.285" cy="114.309" r="4" transform="rotate(3.26863 355.285 114.309)" fill="#D2D2D2"/>
<path d="M254.136 398.34C254.243 397.863 254.68 397.534 255.168 397.561L498.753 411.473C499.364 411.507 499.8 412.077 499.675 412.676L461.258 596.221C461.154 596.719 460.693 597.059 460.187 597.012L215.649 574.178C215.048 574.122 214.634 573.551 214.766 572.962L254.136 398.34Z" stroke="#D2D2D2" strokeWidth="2"/>
<path d="M453.159 386.355L467.731 334.079L520.136 337.072L506.952 390.392L453.159 386.355Z" stroke="#D2D2D2" strokeWidth="2"/>
<path d="M669.98 464.5L591.132 464.5C589.294 464.5 587.693 465.752 587.25 467.536L569.237 540.036C568.61 542.559 570.519 545 573.119 545L653.319 545C655.183 545 656.8 543.713 657.217 541.896L673.879 469.396C674.455 466.89 672.551 464.5 669.98 464.5Z" fill="#D2D2D2"/>
<path d="M660.98 469.5L636.608 469.5C634.771 469.5 633.169 470.752 632.726 472.536L627.237 494.629C626.61 497.152 628.519 499.593 631.119 499.593L655.903 499.593C657.767 499.593 659.384 498.306 659.801 496.489L664.879 474.396C665.455 471.89 663.551 469.5 660.98 469.5Z" fill="#BDBCBC"/>
<path d="M651.98 507.5L627.608 507.5C625.771 507.5 624.169 508.752 623.726 510.536L618.237 532.629C617.61 535.152 619.519 537.593 622.119 537.593L646.903 537.593C648.767 537.593 650.384 536.306 650.801 534.489L655.879 512.396C656.455 509.89 654.551 507.5 651.98 507.5Z" fill="#BDBCBC"/>
<path d="M620.98 469.5L596.608 469.5C594.771 469.5 593.169 470.752 592.726 472.536L587.237 494.629C586.61 497.152 588.519 499.593 591.119 499.593L615.903 499.593C617.767 499.593 619.384 498.306 619.801 496.489L624.879 474.396C625.455 471.89 623.551 469.5 620.98 469.5Z" fill="#BDBCBC"/>
<path d="M611.98 507.5L587.608 507.5C585.771 507.5 584.169 508.752 583.726 510.536L578.237 532.629C577.61 535.152 579.519 537.593 582.119 537.593L606.903 537.593C608.767 537.593 610.384 536.306 610.801 534.489L615.879 512.396C616.455 509.89 614.551 507.5 611.98 507.5Z" fill="#BDBCBC"/>
<path d="M447.027 331.894L268.318 321.688L256.696 376.114L430.413 386.035L447.027 331.894Z" fill="#D2D2D2"/>
<path d="M528.706 261.292L528.704 261.299L528.703 261.306L519.702 308.631C519.608 309.124 519.163 309.471 518.662 309.443L277.671 295.679C277.054 295.644 276.616 295.063 276.752 294.46L311.018 143.033C311.126 142.559 311.558 142.23 312.043 142.255L549.536 154.055C550.148 154.086 550.589 154.655 550.466 155.255L528.706 261.292Z" stroke="#D2D2D2" strokeWidth="2"/>
<circle cx="414.597" cy="189.314" r="15" transform="rotate(3.26863 414.597 189.314)" fill="#D2D2D2" stroke="#D2D2D2" strokeWidth="2"/>
<path d="M344.8 216.779L336.504 223.978L337.16 224.733L328.864 231.932L328.209 231.177L319.913 238.376L320.568 239.131L312.272 246.33L311.617 245.575L303.321 252.774L303.977 253.529L295.681 260.728L295.025 259.973L286.729 267.172L287.385 267.927L283.237 271.527C283.05 271.688 282.93 271.913 282.9 272.158L282.24 277.47L281.247 277.347L279.927 287.971L280.92 288.094L280.259 293.406C280.188 293.981 280.619 294.497 281.198 294.528L286.127 294.794L286.073 295.793L295.931 296.326L295.985 295.327L305.842 295.86L305.788 296.859L315.646 297.391L315.7 296.393L325.558 296.926L325.504 297.924L335.362 298.457L335.416 297.459L345.274 297.991L345.22 298.99L355.077 299.523L355.131 298.524L364.989 299.057L364.935 300.056L374.793 300.589L374.847 299.59L384.705 300.123L384.651 301.121L394.509 301.654L394.563 300.656L404.421 301.189L404.367 302.187L414.224 302.72L414.278 301.721L424.136 302.254L424.082 303.253L433.94 303.786L433.994 302.787L443.852 303.32L443.798 304.318L453.656 304.851L453.71 303.853L463.567 304.386L463.513 305.384L473.371 305.917L473.425 304.919L483.283 305.451L483.229 306.45L493.087 306.983L493.141 305.984L502.999 306.517L502.945 307.516L512.803 308.048L512.857 307.05L517.785 307.316C518.291 307.344 518.737 306.989 518.824 306.491L519.739 301.283L520.724 301.456L522.553 291.039L521.568 290.866L523.396 280.45L524.381 280.623L526.21 270.207L525.225 270.034L527.054 259.617L528.039 259.79L529.868 249.374L528.883 249.201L529.797 243.993C529.864 243.61 529.704 243.223 529.385 243L525.474 240.268L526.047 239.448L518.225 233.983L517.652 234.802L509.83 229.337L510.403 228.517L502.581 223.052L502.008 223.872L494.186 218.406L494.759 217.586L486.937 212.121L486.364 212.941L478.542 207.475L479.115 206.656L471.293 201.19L470.72 202.01L466.81 199.277C466.466 199.037 466.009 199.037 465.666 199.276L465.095 198.457L465.666 199.276L461.284 202.325L460.713 201.505L451.95 207.603L452.521 208.423L443.759 214.521L443.187 213.7L434.425 219.798L434.996 220.619L426.233 226.717L425.662 225.896L416.899 231.994L417.47 232.815L408.708 238.913L408.136 238.092L399.374 244.19L399.945 245.011L395.563 248.06C394.457 248.83 392.974 248.768 391.936 247.908L388.516 245.076L389.154 244.306L382.314 238.641L381.676 239.411L374.837 233.746L375.474 232.976L368.634 227.311L367.997 228.081L361.157 222.417L361.795 221.647L354.955 215.982L354.317 216.752L350.897 213.919C350.52 213.607 349.973 213.614 349.604 213.934L345.456 217.534L344.8 216.779Z" fill="#D2D2D2" stroke="#D2D2D2" strokeWidth="2" strokeDasharray="10 10"/>
<path d="M169.288 196.291L76.2056 190.261C75.6404 190.224 75.2866 190.493 75.0886 190.922C74.8378 191.466 74.8167 192.088 74.6687 192.668L51.0054 285.424C50.9477 286.315 51.6232 287.084 52.5142 287.142L146 293.198C146.891 293.256 147.66 292.58 147.717 291.69L170.591 198.844C170.728 198.288 170.885 197.686 170.627 197.176C170.377 196.682 169.88 196.329 169.288 196.291Z" fill="#D2D2D2"/>
<path d="M52.5142 287.142L146 293.198C146.891 293.256 147.66 292.58 147.717 291.69L154.105 265.759C154.181 265.452 154.259 265.131 154.2 264.821C154.135 264.483 153.932 264.194 153.795 263.88L140.321 232.924C140.073 232.354 139.807 231.724 139.233 231.489C138.638 231.245 137.918 231.365 137.437 231.879L111.913 259.123C111.278 259.801 110.204 259.805 109.563 259.133L89.5973 238.181C89.1022 237.662 88.3629 237.554 87.7644 237.821C87.1999 238.074 86.8537 238.644 86.4256 239.09L54.1882 272.677C53.8091 273.072 53.3981 273.498 53.3627 274.044L51.0054 285.424C50.9477 286.315 51.6232 287.084 52.5142 287.142Z" fill="#BDBCBC"/>
<path d="M124.156 219.053C123.867 223.507 120.022 226.885 115.567 226.596C111.112 226.308 107.735 222.462 108.023 218.007C108.312 213.553 112.157 210.175 116.612 210.464C121.067 210.752 124.445 214.598 124.156 219.053Z" fill="#BDBCBC"/>
<line x1="519.298" y1="221.788" x2="595.298" y2="146.788" stroke="#201E1E" strokeOpacity="0.9" strokeWidth="2"/>
<path d="M535.297 181.788L611.297 106.788M617.999 101.5L631.5 88.5" stroke="#201E1E" strokeOpacity="0.9" strokeWidth="2"/>
<line x1="63.2976" y1="479.788" x2="139.298" y2="404.788" stroke="#201E1E" strokeOpacity="0.9" strokeWidth="2"/>
<path d="M363.833 606C363.833 608.946 361.446 611.333 358.5 611.333C355.554 611.333 353.167 608.946 353.167 606C353.167 603.054 355.554 600.667 358.5 600.667C361.446 600.667 363.833 603.054 363.833 606ZM271.333 516.5C271.333 519.446 268.946 521.833 266 521.833C263.054 521.833 260.667 519.446 260.667 516.5C260.667 513.554 263.054 511.167 266 511.167C268.946 511.167 271.333 513.554 271.333 516.5ZM357.506 606.111C354.103 575.771 349.039 554.538 336.031 540.427C323.055 526.351 301.973 519.16 265.954 517.499L266.046 515.501C302.207 517.169 323.973 524.396 337.501 539.072C350.997 553.712 356.093 575.565 359.494 605.889L357.506 606.111Z" fill="#201E1E" fillOpacity="0.9"/>
<circle cx="78" cy="596.5" r="12" fill="#201E1E"/>
<path d="M681.053 278.52L677.776 287.968M674.663 296.943L670.895 307.808M680.698 294.803L692.508 298.898M670.778 291.362L658.495 287.102" stroke="#A6A5A5" strokeWidth="2" strokeLinecap="round"/>
<path d="M65.6063 326.057L62.062 331.256M58.6948 336.195L54.6187 342.174M62.712 335.888L69.2107 340.318M57.2531 332.166L50.4945 327.558" stroke="#A6A5A5" strokeWidth="1.25844" strokeLinecap="round"/>
</g>
<defs>
<clipPath id="clip0_589_20386">
<rect width="725" height="729" fill="white" transform="translate(0 0.5)"/>
</clipPath>
</defs>
</svg>
